<svg width="176" height="135" viewBox="0 0 176 135" fill="none" xmlns="http://www.w3.org/2000/svg">
<path d="M42.4888 118.061C39.5722 118.061 36.9307 117.31 34.5641 115.811C32.2141 114.294 30.3475 112.069 28.9642 109.136C27.5976 106.186 26.9142 102.569 26.9142 98.2863C26.9142 93.8864 27.6226 90.2278 29.0392 87.3112C30.4558 84.3783 32.3391 82.1868 34.689 80.7366C37.0556 79.2702 39.6472 78.5367 42.4638 78.5367C44.6138 78.5367 46.4054 78.9034 47.8387 79.637C49.2886 80.353 50.4553 81.2534 51.3386 82.3368C52.2385 83.4033 52.9218 84.453 53.3885 85.4865H53.7135V66.2373H64.3384V117.436H53.8385V111.286H53.3885C52.8885 112.352 52.1802 113.411 51.2636 114.461C50.3636 115.494 49.1886 116.352 47.7386 117.036C46.3054 117.719 44.5554 118.061 42.4888 118.061ZM45.8637 109.586C47.5803 109.586 49.0303 109.119 50.2136 108.186C51.4135 107.236 52.3302 105.911 52.9635 104.211C53.6135 102.511 53.9385 100.519 53.9385 98.2363C53.9385 95.9527 53.6218 93.9695 52.9885 92.2863C52.3552 90.603 51.4385 89.3028 50.2386 88.3862C49.0386 87.4696 47.5803 87.0113 45.8637 87.0113C44.1137 87.0113 42.6388 87.4865 41.4389 88.4362C40.2388 89.3865 39.3306 90.703 38.7139 92.3862C38.0972 94.0695 37.789 96.0195 37.789 98.2363C37.789 100.469 38.0972 102.444 38.7139 104.161C39.3472 105.861 40.2555 107.194 41.4389 108.161C42.6388 109.111 44.1137 109.586 45.8637 109.586Z" fill="white"/>
<mask id="mask0_76_1086" style="mask-type:luminance" maskUnits="userSpaceOnUse" x="26" y="65" width="40" height="54">
<path d="M65.0412 65.6435H26.4983V118.64H65.0412V65.6435Z" fill="white"/>
<path d="M42.4888 118.061C39.5722 118.061 36.9307 117.31 34.5641 115.811C32.2141 114.294 30.3475 112.069 28.9642 109.136C27.5976 106.186 26.9142 102.569 26.9142 98.2863C26.9142 93.8864 27.6226 90.2278 29.0392 87.3112C30.4558 84.3783 32.3391 82.1868 34.689 80.7366C37.0556 79.2702 39.6472 78.5367 42.4638 78.5367C44.6138 78.5367 46.4054 78.9034 47.8387 79.637C49.2886 80.353 50.4553 81.2534 51.3386 82.3368C52.2385 83.4033 52.9218 84.453 53.3885 85.4865H53.7135V66.2373H64.3384V117.436H53.8385V111.286H53.3885C52.8885 112.352 52.1802 113.411 51.2636 114.461C50.3636 115.494 49.1886 116.352 47.7386 117.036C46.3054 117.719 44.5554 118.061 42.4888 118.061ZM45.8637 109.586C47.5803 109.586 49.0303 109.119 50.2136 108.186C51.4135 107.236 52.3302 105.911 52.9635 104.211C53.6135 102.511 53.9385 100.519 53.9385 98.2363C53.9385 95.9527 53.6218 93.9695 52.9885 92.2863C52.3552 90.603 51.4385 89.3028 50.2386 88.3862C49.0386 87.4696 47.5803 87.0113 45.8637 87.0113C44.1137 87.0113 42.6388 87.4865 41.4389 88.4362C40.2388 89.3865 39.3306 90.703 38.7139 92.3862C38.0972 94.0695 37.789 96.0195 37.789 98.2363C37.789 100.469 38.0972 102.444 38.7139 104.161C39.3472 105.861 40.2555 107.194 41.4389 108.161C42.6388 109.111 44.1137 109.586 45.8637 109.586Z" fill="black"/>
</mask>
<g mask="url(#mask0_76_1086)">
<path d="M34.5641 115.811L34.431 116.017L34.4327 116.018L34.5641 115.811ZM28.9642 109.136L28.7417 109.239L28.7423 109.24L28.9642 109.136ZM29.0392 87.3112L29.2598 87.4184L29.2601 87.4178L29.0392 87.3112ZM34.689 80.7366L34.8178 80.9456L34.8183 80.945L34.689 80.7366ZM47.8387 79.637L47.7269 79.855L47.73 79.8568L47.8387 79.637ZM51.3386 82.3368L51.1484 82.4915L51.1511 82.4946L51.3386 82.3368ZM53.3885 85.4865L53.165 85.5876L53.2301 85.7316H53.3885V85.4865ZM53.7135 85.4865V85.7316H53.9588V85.4865H53.7135ZM53.7135 66.2373V65.9915H53.4682V66.2373H53.7135ZM64.3384 66.2373H64.5835V65.9915H64.3384V66.2373ZM64.3384 117.436V117.681H64.5835V117.436H64.3384ZM53.8385 117.436H53.5932V117.681H53.8385V117.436ZM53.8385 111.286H54.0838V111.04H53.8385V111.286ZM53.3885 111.286V111.04H53.2326L53.1664 111.181L53.3885 111.286ZM51.2636 114.461L51.0788 114.299L51.0786 114.3L51.2636 114.461ZM47.7386 117.036L47.6341 116.813L47.6331 116.814L47.7386 117.036ZM50.2136 108.186L50.3655 108.379L50.3658 108.378L50.2136 108.186ZM52.9635 104.211L52.7344 104.123L52.7336 104.126L52.9635 104.211ZM38.7139 104.161L38.483 104.244L38.4841 104.247L38.7139 104.161ZM41.4389 108.161L41.2837 108.351L41.2866 108.353L41.4389 108.161ZM42.4888 117.815C39.6167 117.815 37.021 117.077 34.6953 115.604L34.4327 116.018C36.8403 117.544 39.5277 118.306 42.4888 118.306V117.815ZM34.697 115.605C32.3914 114.117 30.553 111.93 29.1861 109.031L28.7423 109.24C30.142 112.208 32.0368 114.471 34.431 116.017L34.697 115.605ZM29.1868 109.033C27.8391 106.124 27.1595 102.545 27.1595 98.2863H26.669C26.669 102.594 27.3561 106.248 28.7417 109.239L29.1868 109.033ZM27.1595 98.2863C27.1595 93.9111 27.8642 90.2923 29.2598 87.4184L28.8186 87.204C27.381 90.164 26.669 93.8617 26.669 98.2863H27.1595ZM29.2601 87.4178C30.6601 84.5193 32.5144 82.3669 34.8178 80.9456L34.5602 80.5277C32.1638 82.0067 30.2516 84.2368 28.8183 87.2046L29.2601 87.4178ZM34.8183 80.945C37.1455 79.5027 39.6923 78.7818 42.4638 78.7818V78.2916C39.6021 78.2916 36.9657 79.0371 34.5598 80.5283L34.8183 80.945ZM42.4638 78.7818C44.5874 78.7818 46.3379 79.1443 47.7269 79.855L47.9504 79.4183C46.4729 78.6625 44.6402 78.2916 42.4638 78.2916V78.7818ZM47.73 79.8568C49.1534 80.5602 50.2906 81.4394 51.1484 82.4915L51.5286 82.1814C50.6199 81.0673 49.4238 80.1464 47.9473 79.4165L47.73 79.8568ZM51.1511 82.4946C52.0397 83.5479 52.7095 84.5789 53.165 85.5876L53.6121 85.3853C53.1342 84.3278 52.4374 83.2588 51.526 82.1784L51.1511 82.4946ZM53.3885 85.7316H53.7135V85.2413H53.3885V85.7316ZM53.9588 85.4865V66.2373H53.4682V85.4865H53.9588ZM53.7135 66.4824H64.3384V65.9915H53.7135V66.4824ZM64.0927 66.2373V117.436H64.5835V66.2373H64.0927ZM64.3384 117.19H53.8385V117.681H64.3384V117.19ZM54.0838 117.436V111.286H53.5932V117.436H54.0838ZM53.8385 111.04H53.3885V111.531H53.8385V111.04ZM53.1664 111.181C52.6777 112.224 51.983 113.263 51.0788 114.299L51.4483 114.622C52.3773 113.558 53.0993 112.48 53.6106 111.39L53.1664 111.181ZM51.0786 114.3C50.2044 115.303 49.0585 116.143 47.6341 116.813L47.8432 117.257C49.3187 116.562 50.5226 115.685 51.4483 114.622L51.0786 114.3ZM47.6331 116.814C46.2411 117.478 44.5295 117.815 42.4888 117.815V118.306C44.5814 118.306 46.3696 117.96 47.8442 117.257L47.6331 116.814ZM45.8637 109.831C47.6274 109.831 49.133 109.351 50.3655 108.379L50.0617 107.993C48.9276 108.887 47.5333 109.34 45.8637 109.34V109.831ZM50.3658 108.378C51.607 107.396 52.5473 106.03 53.1934 104.297L52.7336 104.126C52.113 105.791 51.2202 107.076 50.0613 107.994L50.3658 108.378ZM53.1926 104.298C53.8556 102.565 54.1838 100.542 54.1838 98.2363H53.6932C53.6932 100.497 53.3713 102.457 52.7344 104.123L53.1926 104.298ZM54.1838 98.2363C54.1838 95.931 53.8641 93.9171 53.2181 92.2002L52.7589 92.3724C53.3795 94.0219 53.6932 95.975 53.6932 98.2363H54.1838ZM53.2181 92.2002C52.5717 90.482 51.6305 89.1408 50.3875 88.1917L50.0897 88.5813C51.2467 89.4654 52.1387 90.7241 52.7589 92.3724L53.2181 92.2002ZM50.3875 88.1917C49.139 87.2377 47.6264 86.7662 45.8637 86.7662V87.257C47.5342 87.257 48.9382 87.7015 50.0897 88.5813L50.3875 88.1917ZM45.8637 86.7662C44.0668 86.7662 42.536 87.2552 41.2866 88.2441L41.5911 88.6289C42.7416 87.7177 44.1607 87.257 45.8637 87.257V86.7662ZM41.2866 88.2441C40.0455 89.2269 39.1131 90.5838 38.4836 92.3019L38.9442 92.4706C39.548 90.8222 40.4323 89.5461 41.5911 88.6289L41.2866 88.2441ZM38.4836 92.3019C37.855 94.0177 37.5437 95.9972 37.5437 98.2363H38.0343C38.0343 96.0418 38.3395 94.1213 38.9442 92.4706L38.4836 92.3019ZM37.5437 98.2363C37.5437 100.492 37.8549 102.495 38.483 104.244L38.9448 104.078C38.3395 102.393 38.0343 100.447 38.0343 98.2363H37.5437ZM38.4841 104.247C39.1297 105.98 40.0608 107.352 41.2837 108.351L41.594 107.971C40.4502 107.037 39.5648 105.742 38.9438 104.076L38.4841 104.247ZM41.2866 108.353C42.536 109.342 44.0668 109.831 45.8637 109.831V109.34C44.1607 109.34 42.7416 108.88 41.5911 107.968L41.2866 108.353Z" fill="white"/>
</g>
<path d="M80.8432 118.161C78.3934 118.161 76.2097 117.735 74.2933 116.886C72.3764 116.019 70.86 114.744 69.7435 113.061C68.6432 111.361 68.0934 109.244 68.0934 106.711C68.0934 104.578 68.4848 102.786 69.2683 101.336C70.0518 99.8859 71.1184 98.7193 72.468 97.8359C73.8182 96.953 75.3515 96.2863 77.0678 95.8364C78.8017 95.386 80.618 95.0698 82.5181 94.8861C84.7511 94.6531 86.5512 94.4362 87.9177 94.2363C89.2841 94.0195 90.276 93.7027 90.8927 93.286C91.5094 92.8698 91.8177 92.2531 91.8177 91.4365V91.2866C91.8177 89.7033 91.3179 88.4784 90.3176 87.6111C89.3341 86.7445 87.9345 86.3115 86.1176 86.3115C84.2013 86.3115 82.6764 86.7367 81.543 87.5864C80.4096 88.4199 79.6598 89.4696 79.2931 90.7361L69.4436 89.9364C69.9434 87.6033 70.9269 85.5864 72.3933 83.8863C73.8597 82.17 75.7514 80.8535 78.0681 79.9369C80.4012 79.0034 83.101 78.5367 86.1676 78.5367C88.3013 78.5367 90.3429 78.7866 92.2929 79.2865C94.2592 79.7869 96.0009 80.5614 97.5173 81.6117C99.0506 82.6614 100.259 84.0116 101.142 85.6617C102.026 87.295 102.468 89.2528 102.468 91.5365V117.436H92.3676V112.111H92.0677C91.451 113.311 90.6259 114.369 89.5925 115.286C88.5597 116.185 87.3179 116.894 85.8677 117.41C84.4181 117.911 82.7427 118.161 80.8432 118.161ZM83.8929 110.811C85.4594 110.811 86.8427 110.503 88.0429 109.886C89.2426 109.252 90.1845 108.403 90.8674 107.336C91.551 106.269 91.8924 105.061 91.8924 103.711V99.6359C91.5594 99.8527 91.1011 100.053 90.5175 100.236C89.9508 100.403 89.3094 100.561 88.5928 100.711C87.8761 100.845 87.1595 100.969 86.4428 101.086C85.7262 101.186 85.0763 101.278 84.4928 101.361C83.2431 101.544 82.1513 101.836 81.2178 102.236C80.285 102.636 79.5599 103.178 79.0432 103.861C78.5264 104.528 78.2681 105.361 78.2681 106.361C78.2681 107.811 78.7932 108.919 79.8429 109.686C80.9095 110.436 82.2597 110.811 83.8929 110.811Z" fill="white"/>
<mask id="mask1_76_1086" style="mask-type:luminance" maskUnits="userSpaceOnUse" x="67" y="78" width="36" height="41">
<path d="M102.982 78.2904H67.4502V118.64H102.982V78.2904Z" fill="white"/>
<path d="M80.8432 118.161C78.3934 118.161 76.2097 117.735 74.2933 116.886C72.3764 116.019 70.86 114.744 69.7435 113.061C68.6432 111.361 68.0934 109.244 68.0934 106.711C68.0934 104.578 68.4848 102.786 69.2683 101.336C70.0518 99.8859 71.1184 98.7193 72.468 97.8359C73.8182 96.953 75.3515 96.2863 77.0678 95.8364C78.8017 95.386 80.618 95.0698 82.5181 94.8861C84.7511 94.6531 86.5512 94.4362 87.9177 94.2363C89.2841 94.0195 90.276 93.7027 90.8927 93.286C91.5094 92.8698 91.8177 92.2531 91.8177 91.4365V91.2866C91.8177 89.7033 91.3179 88.4784 90.3176 87.6111C89.3341 86.7445 87.9345 86.3115 86.1176 86.3115C84.2013 86.3115 82.6764 86.7367 81.543 87.5864C80.4096 88.4199 79.6598 89.4696 79.2931 90.7361L69.4436 89.9364C69.9434 87.6033 70.9269 85.5864 72.3933 83.8863C73.8597 82.17 75.7514 80.8535 78.0681 79.9369C80.4012 79.0034 83.101 78.5367 86.1676 78.5367C88.3013 78.5367 90.3429 78.7866 92.2929 79.2865C94.2592 79.7869 96.0009 80.5614 97.5173 81.6117C99.0506 82.6614 100.259 84.0116 101.142 85.6617C102.026 87.295 102.468 89.2528 102.468 91.5365V117.436H92.3676V112.111H92.0677C91.451 113.311 90.6259 114.369 89.5925 115.286C88.5597 116.185 87.3179 116.894 85.8677 117.41C84.4181 117.911 82.7427 118.161 80.8432 118.161ZM83.8929 110.811C85.4594 110.811 86.8427 110.503 88.0429 109.886C89.2426 109.252 90.1845 108.403 90.8674 107.336C91.551 106.269 91.8924 105.061 91.8924 103.711V99.6359C91.5594 99.8527 91.1011 100.053 90.5175 100.236C89.9508 100.403 89.3094 100.561 88.5928 100.711C87.8761 100.845 87.1595 100.969 86.4428 101.086C85.7262 101.186 85.0763 101.278 84.4928 101.361C83.2431 101.544 82.1513 101.836 81.2178 102.236C80.285 102.636 79.5599 103.178 79.0432 103.861C78.5264 104.528 78.2681 105.361 78.2681 106.361C78.2681 107.811 78.7932 108.919 79.8429 109.686C80.9095 110.436 82.2597 110.811 83.8929 110.811Z" fill="black"/>
</mask>
<g mask="url(#mask1_76_1086)">
<path d="M74.2934 116.886L74.1922 117.109L74.194 117.11L74.2934 116.886ZM69.7435 113.061L69.5375 113.194L69.5387 113.196L69.7435 113.061ZM77.0678 95.8364L77.0064 95.5986L77.0058 95.5992L77.0678 95.8364ZM82.5181 94.8861L82.5415 95.1306L82.5434 95.13L82.5181 94.8861ZM87.9177 94.2363L87.9532 94.479L87.9562 94.4784L87.9177 94.2363ZM90.3176 87.6111L90.1556 87.7954L90.1574 87.7966L90.3176 87.6111ZM81.543 87.5864L81.6882 87.784L81.69 87.7828L81.543 87.5864ZM79.2931 90.7361L79.2732 90.9806L79.4732 90.9969L79.5286 90.8048L79.2931 90.7361ZM69.4436 89.9364L69.2033 89.8852L69.1449 90.158L69.4237 90.1809L69.4436 89.9364ZM72.3933 83.8863L72.5788 84.0465L72.58 84.0459L72.3933 83.8863ZM97.5173 81.6117L97.3782 81.8134L97.3788 81.814L97.5173 81.6117ZM101.142 85.6617L100.926 85.7773L100.927 85.7779L101.142 85.6617ZM102.468 117.436V117.681H102.713V117.436H102.468ZM92.3676 117.436H92.1225V117.681H92.3676V117.436ZM92.3676 112.111H92.6127V111.865H92.3676V112.111ZM92.0677 112.111V111.865H91.9177L91.8497 111.999L92.0677 112.111ZM89.5925 115.286L89.7539 115.47L89.7557 115.469L89.5925 115.286ZM85.8677 117.41L85.9478 117.643L85.9502 117.642L85.8677 117.41ZM88.0429 109.886L88.155 110.104L88.1574 110.103L88.0429 109.886ZM91.8924 99.6359H92.1381V99.1843L91.7587 99.4306L91.8924 99.6359ZM90.5175 100.236L90.5868 100.471L90.591 100.47L90.5175 100.236ZM88.5928 100.711L88.638 100.952L88.6428 100.951L88.5928 100.711ZM86.4428 101.086L86.4765 101.329L86.4826 101.328L86.4428 101.086ZM84.4928 101.361L84.4585 101.118L84.4573 101.119L84.4928 101.361ZM79.0432 103.861L79.2371 104.011L79.2389 104.009L79.0432 103.861ZM79.8429 109.686L79.6984 109.884L79.702 109.887L79.8429 109.686ZM80.8432 117.916C78.4217 117.916 76.2729 117.495 74.3927 116.661L74.194 117.11C76.1464 117.976 78.3645 118.406 80.8432 118.406V117.916ZM74.3945 116.662C72.518 115.814 71.0377 114.568 69.9476 112.925L69.5387 113.196C70.6824 114.919 72.2355 116.224 74.1922 117.109L74.3945 116.662ZM69.9494 112.927C68.8805 111.276 68.3385 109.208 68.3385 106.711H67.8483C67.8483 109.279 68.4059 111.445 69.5375 113.194L69.9494 112.927ZM68.3385 106.711C68.3385 104.607 68.7251 102.858 69.4839 101.453L69.0527 101.219C68.2451 102.714 67.8483 104.548 67.8483 106.711H68.3385ZM69.4839 101.453C70.2488 100.038 71.2876 98.9018 72.6023 98.0412L72.3337 97.6311C70.9492 98.5369 69.8549 99.7347 69.0527 101.219L69.4839 101.453ZM72.6023 98.0412C73.9284 97.174 75.437 96.5176 77.1305 96.0737L77.0058 95.5992C75.2666 96.055 73.708 96.732 72.3337 97.6311L72.6023 98.0412ZM77.1299 96.0737C78.8499 95.6269 80.6535 95.3125 82.5415 95.1306L82.4946 94.6422C80.5825 94.8265 78.7529 95.1451 77.0064 95.5986L77.1299 96.0737ZM82.5434 95.13C84.7782 94.897 86.5819 94.6795 87.9532 94.479L87.8822 93.9936C86.5205 94.1929 84.724 94.4091 82.4928 94.6422L82.5434 95.13ZM87.9562 94.4784C89.3329 94.2604 90.3682 93.937 91.03 93.4895L90.7554 93.083C90.1839 93.4691 89.236 93.7792 87.8791 93.9942L87.9562 94.4784ZM91.03 93.4895C91.7214 93.0222 92.0629 92.3248 92.0629 91.4365H91.5726C91.5726 92.1809 91.2974 92.7169 90.7554 93.083L91.03 93.4895ZM92.0629 91.4365V91.2866H91.5726V91.4365H92.0629ZM92.0629 91.2866C92.0629 89.6473 91.5425 88.3483 90.4784 87.4262L90.1574 87.7966C91.0927 88.6078 91.5726 89.7587 91.5726 91.2866H92.0629ZM90.4802 87.4274C89.4371 86.5084 87.9713 86.0664 86.1176 86.0664V86.5566C87.8978 86.5566 89.2318 86.9812 90.1556 87.7954L90.4802 87.4274ZM86.1176 86.0664C84.167 86.0664 82.5843 86.4988 81.3961 87.3901L81.69 87.7828C82.768 86.974 84.2356 86.5566 86.1176 86.5566V86.0664ZM81.3979 87.3889C80.2242 88.2519 79.44 89.3462 79.0576 90.6681L79.5286 90.8048C79.8791 89.5937 80.5957 88.5874 81.6882 87.784L81.3979 87.3889ZM79.313 90.4916L69.4634 89.6919L69.4237 90.1809L79.2732 90.9806L79.313 90.4916ZM69.6833 89.9875C70.1753 87.6918 71.1407 85.7135 72.5788 84.0465L72.2078 83.7261C70.7125 85.4594 69.7116 87.5142 69.2033 89.8852L69.6833 89.9875ZM72.58 84.0459C74.0175 82.3627 75.8748 81.0685 78.1585 80.1645L77.9778 79.7086C75.6279 80.6385 73.702 81.9772 72.2066 83.7273L72.58 84.0459ZM78.1585 80.1645C80.4572 79.2449 83.1257 78.7818 86.1676 78.7818V78.2916C83.0769 78.2916 80.3446 78.7619 77.9772 79.7086L78.1585 80.1645ZM86.1676 78.7818C88.282 78.7818 90.3031 79.0299 92.2315 79.5243L92.3537 79.0492C90.3826 78.5439 88.3206 78.2916 86.1676 78.2916V78.7818ZM92.2315 79.5243C94.1725 80.0182 95.8876 80.7818 97.3782 81.8134L97.657 81.4099C96.1141 80.3416 94.3453 79.5557 92.3531 79.0492L92.2315 79.5243ZM97.3788 81.814C98.8795 82.8414 100.061 84.1615 100.926 85.7773L101.359 85.5455C100.457 83.8616 99.2222 82.4813 97.6564 81.4093L97.3788 81.814ZM100.927 85.7779C101.787 87.3684 102.222 89.2847 102.222 91.5365H102.713C102.713 89.2215 102.265 87.2215 101.358 85.5449L100.927 85.7779ZM102.222 91.5365V117.436H102.713V91.5365H102.222ZM102.468 117.19H92.3676V117.681H102.468V117.19ZM92.6127 117.436V112.111H92.1225V117.436H92.6127ZM92.3676 111.865H92.0677V112.356H92.3676V111.865ZM91.8497 111.999C91.2468 113.171 90.441 114.205 89.4299 115.102L89.7557 115.469C90.8108 114.533 91.6551 113.451 92.2857 112.223L91.8497 111.999ZM89.4317 115.101C88.4242 115.978 87.2101 116.672 85.7858 117.18L85.9502 117.642C87.4257 117.116 88.6946 116.393 89.7539 115.47L89.4317 115.101ZM85.7882 117.178C84.3687 117.668 82.7222 117.916 80.8432 117.916V118.406C82.7638 118.406 84.4669 118.153 85.9478 117.643L85.7882 117.178ZM83.893 111.056C85.4925 111.056 86.915 110.741 88.155 110.104L87.9309 109.667C86.7704 110.264 85.4268 110.565 83.893 110.565V111.056ZM88.1574 110.103C89.392 109.451 90.3664 108.573 91.074 107.468L90.6615 107.204C90.0026 108.232 89.0938 109.054 87.9285 109.669L88.1574 110.103ZM91.074 107.468C91.7846 106.359 92.1381 105.105 92.1381 103.711H91.6473C91.6473 105.017 91.3173 106.179 90.6615 107.204L91.074 107.468ZM92.1381 103.711V99.6359H91.6473V103.711H92.1381ZM91.7587 99.4306C91.4516 99.6305 91.0162 99.822 90.4441 100.002L90.591 100.47C91.186 100.283 91.6672 100.075 92.0261 99.8419L91.7587 99.4306ZM90.4483 100.001C89.8894 100.165 89.254 100.322 88.5428 100.471L88.6428 100.951C89.3649 100.8 90.0129 100.64 90.5868 100.471L90.4483 100.001ZM88.5482 100.47C87.8334 100.603 87.1185 100.728 86.4037 100.844L86.4826 101.328C87.201 101.211 87.9195 101.086 88.638 100.952L88.5482 100.47ZM86.4091 100.843C85.6918 100.943 85.042 101.035 84.4585 101.118L84.5277 101.604C85.1107 101.52 85.7605 101.429 86.4765 101.329L86.4091 100.843ZM84.4573 101.119C83.1914 101.304 82.0784 101.6 81.1215 102.011L81.3148 102.462C82.2242 102.071 83.2949 101.785 84.5283 101.603L84.4573 101.119ZM81.1215 102.011C80.1561 102.424 79.3943 102.99 78.8474 103.713L79.2389 104.009C79.7255 103.366 80.4133 102.848 81.3148 102.462L81.1215 102.011ZM78.8492 103.711C78.2934 104.428 78.023 105.317 78.023 106.361H78.5132C78.5132 105.405 78.7595 104.627 79.2371 104.011L78.8492 103.711ZM78.023 106.361C78.023 107.879 78.577 109.065 79.6984 109.884L79.9875 109.488C79.0088 108.773 78.5132 107.743 78.5132 106.361H78.023ZM79.702 109.887C80.8192 110.672 82.2218 111.056 83.893 111.056V110.565C82.297 110.565 80.9998 110.2 79.9839 109.485L79.702 109.887Z" fill="white"/>
</g>
<path d="M117.42 131.835C116.07 131.835 114.803 131.727 113.62 131.51C112.453 131.31 111.487 131.052 110.72 130.735L113.12 122.785C114.37 123.169 115.495 123.377 116.495 123.41C117.511 123.443 118.386 123.21 119.12 122.711C119.87 122.211 120.478 121.36 120.945 120.161L121.57 118.535L107.796 79.0365H118.995L126.945 107.236H127.345L135.369 79.0365H146.644L131.719 121.586C131.003 123.652 130.028 125.452 128.795 126.985C127.578 128.535 126.037 129.727 124.17 130.56C122.303 131.41 120.053 131.835 117.42 131.835Z" fill="white"/>
<mask id="mask2_76_1086" style="mask-type:luminance" maskUnits="userSpaceOnUse" x="107" y="78" width="41" height="55">
<path d="M147.547 78.2904H107.198V132.491H147.547V78.2904Z" fill="white"/>
<path d="M117.42 131.835C116.07 131.835 114.803 131.727 113.62 131.51C112.453 131.31 111.487 131.052 110.72 130.735L113.12 122.785C114.37 123.169 115.495 123.377 116.495 123.41C117.511 123.443 118.386 123.21 119.12 122.711C119.87 122.211 120.478 121.36 120.945 120.161L121.57 118.535L107.796 79.0365H118.995L126.945 107.236H127.345L135.369 79.0365H146.644L131.719 121.586C131.003 123.652 130.028 125.452 128.795 126.985C127.578 128.535 126.037 129.727 124.17 130.56C122.303 131.41 120.053 131.835 117.42 131.835Z" fill="black"/>
</mask>
<g mask="url(#mask2_76_1086)">
<path d="M113.62 131.51L113.664 131.269L113.661 131.268L113.62 131.51ZM110.72 130.735L110.485 130.664L110.421 130.877L110.627 130.962L110.72 130.735ZM113.12 122.785L113.192 122.551L112.957 122.479L112.885 122.715L113.12 122.785ZM119.12 122.711L118.984 122.506L118.982 122.508L119.12 122.711ZM121.57 118.535L121.799 118.624L121.831 118.539L121.802 118.455L121.57 118.535ZM107.796 79.0365V78.7914H107.45L107.564 79.1172L107.796 79.0365ZM118.995 79.0365L119.231 78.9703L119.181 78.7914H118.995V79.0365ZM126.945 107.236L126.709 107.302L126.759 107.481H126.945V107.236ZM127.345 107.236V107.481H127.53L127.581 107.303L127.345 107.236ZM135.369 79.0365V78.7914H135.184L135.133 78.9697L135.369 79.0365ZM146.644 79.0365L146.876 79.1178L146.99 78.7914H146.644V79.0365ZM131.719 121.586L131.488 121.504V121.505L131.719 121.586ZM128.795 126.985L128.603 126.832L128.602 126.834L128.795 126.985ZM124.17 130.56L124.07 130.336L124.068 130.337L124.17 130.56ZM117.42 131.59C116.083 131.59 114.832 131.483 113.664 131.269L113.576 131.751C114.776 131.971 116.057 132.081 117.42 132.081V131.59ZM113.661 131.268C112.506 131.07 111.558 130.816 110.814 130.508L110.627 130.962C111.416 131.288 112.401 131.55 113.579 131.752L113.661 131.268ZM110.955 130.806L113.355 122.856L112.885 122.715L110.485 130.664L110.955 130.806ZM113.048 123.02C114.313 123.408 115.46 123.621 116.487 123.655L116.503 123.165C115.53 123.133 114.427 122.93 113.192 122.551L113.048 123.02ZM116.487 123.655C117.548 123.69 118.476 123.446 119.258 122.913L118.982 122.508C118.297 122.974 117.476 123.197 116.503 123.165L116.487 123.655ZM119.256 122.915C120.063 122.377 120.696 121.477 121.174 120.249L120.717 120.072C120.261 121.244 119.678 122.044 118.984 122.506L119.256 122.915ZM121.174 120.249L121.799 118.624L121.341 118.447L120.716 120.072L121.174 120.249ZM121.802 118.455L108.027 78.9558L107.564 79.1172L121.338 118.617L121.802 118.455ZM107.796 79.2822H118.995V78.7914H107.796V79.2822ZM118.759 79.1034L126.709 107.302L127.181 107.169L119.231 78.9703L118.759 79.1034ZM126.945 107.481H127.345V106.99H126.945V107.481ZM127.581 107.303L135.606 79.104L135.133 78.9697L127.109 107.169L127.581 107.303ZM135.369 79.2822H146.644V78.7914H135.369V79.2822ZM146.413 78.9552L131.488 121.504L131.951 121.667L146.876 79.1178L146.413 78.9552ZM131.488 121.505C130.779 123.548 129.817 125.322 128.603 126.832L128.986 127.139C130.238 125.581 131.227 123.756 131.951 121.666L131.488 121.505ZM128.602 126.834C127.411 128.351 125.901 129.519 124.07 130.336L124.27 130.784C126.172 129.935 127.745 128.719 128.988 127.137L128.602 126.834ZM124.068 130.337C122.241 131.169 120.028 131.59 117.42 131.59V132.081C120.079 132.081 122.365 131.651 124.272 130.783L124.068 130.337Z" fill="white"/>
</g>
<path d="M88.0676 30.7721H94.2869L94.3676 30.8424H95.9021L95.9828 30.9128L98.0828 30.9831L98.1635 31.0534H98.8904L98.9711 31.1237L100.99 31.2643L101.072 31.3347L102.687 31.4753L106.321 32.0378L110.36 32.8816L113.348 33.6551L116.094 34.4989L119.406 35.6943C121.21 36.3974 122.933 37.1709 124.576 38.0147C128.205 39.8476 131.449 42.0157 134.308 44.5189L134.47 44.7299L134.793 44.9057V45.0112L137.216 47.3316L139.155 49.5817C140.673 51.4708 141.992 53.5334 143.112 55.7695L144.728 59.5666L145.535 62.1686L146.262 65.6139L146.585 68.6372L146.424 69.411L146.181 69.9735L145.253 71.0636C144.779 71.4478 144.187 71.729 143.476 71.9073L141.941 71.9771C140.681 71.785 139.752 71.3045 139.155 70.536L138.508 69.411L138.266 67.2309L138.186 67.1605V66.598L137.377 62.9418L136.408 60.1994L135.439 58.0899C133.431 54.3304 130.752 51.1544 127.403 48.5621C125.06 46.7104 122.449 45.0932 119.567 43.7103C116.698 42.3415 113.575 41.193 110.199 40.2648L105.675 39.2101L100.344 38.3662L98.4062 38.2256L98.3255 38.1553H97.598L97.5173 38.085H96.7097L96.629 38.0147L93.9635 37.9444L93.8828 37.874H88.4711L88.3904 37.9444H86.856L86.7753 38.0147H85.725L85.6443 38.085L83.2215 38.2256L83.1402 38.296L80.2326 38.5772L79.7478 38.7178H79.2636L78.3747 38.9288L76.7595 39.1398L71.1057 40.4055L65.6134 42.093C58.6294 44.5682 52.7197 47.9785 47.8843 52.324C45.515 54.4804 43.4688 56.918 41.7458 59.6369C40.8196 61.1279 40.0119 62.7214 39.3226 64.4185L38.3534 67.2309L37.7072 69.7627C37.4003 70.386 36.9561 70.8901 36.3745 71.2743L35.163 71.8368L34.5168 71.9771H33.3053C32.2122 71.7802 31.3641 71.3701 30.761 70.7468C30.411 70.3951 30.1417 69.9735 29.9533 69.4809L29.7918 68.7781V68.0747L30.4379 65.473L31.811 61.6055L33.1033 58.8634L34.638 56.1914C37.271 52.0615 40.5153 48.4637 44.3708 45.3979C47.0685 43.2228 50.0301 41.2774 53.2555 39.5616C56.7501 37.7053 60.5462 36.1115 64.6444 34.7801L69.2478 33.4441L75.3864 32.1081H75.7905L78.456 31.6159H78.9402L81.2829 31.2643H81.8484L81.9291 31.194L84.1905 31.0534L84.2712 30.9831H85.1595L85.2402 30.9128L87.9863 30.8424L88.0676 30.7721Z" fill="white" stroke="white" stroke-width="0.245289"/>
<path d="M3.50256 49.1691H3.92997L4.90692 49.3674L10.3412 50.7558L12.7225 51.483L15.4702 52.4747C17.8881 53.4266 20.1677 54.5285 22.3088 55.7802L24.1407 56.9041L24.8428 57.5983L25.3923 58.7222L25.5145 59.251V60.1105C25.3598 61.0448 25.0036 61.7609 24.4459 62.2589C24.1407 62.5456 23.7743 62.766 23.3469 62.9202L22.7973 63.0526H22.0646L21.3319 62.8539C19.9276 61.9506 18.4621 61.1135 16.9357 60.342L13.3942 58.7552L11.0129 57.8958L8.63157 57.1685L2.89196 55.7802C2.19995 55.5598 1.6606 55.1742 1.27389 54.6232L0.724355 53.4994L0.602234 52.9043V52.1771C0.760989 51.1149 1.17823 50.3326 1.85395 49.8302L2.64773 49.3674L3.50256 49.1691Z" fill="white" stroke="white" stroke-width="0.245289"/>
<path d="M28.5223 20.7153L29.3771 20.7814C29.8778 20.9224 30.3052 21.1428 30.6594 21.4425L37.1928 26.9958C38.5076 28.1727 39.7593 29.4177 40.9479 30.7311L41.07 30.9295C42.7838 32.7762 44.3713 34.7595 45.8326 36.8795C46.0688 37.2409 46.2316 37.6816 46.3211 38.2017V39.2595C46.138 40.2512 45.7207 40.9894 45.0694 41.4742C44.7153 41.7519 44.2879 41.9502 43.7872 42.0692H42.7491C41.9025 41.8841 41.2613 41.4764 40.8258 40.8462L39.6046 39.1273L37.2233 36.2184V36.1192C37.1134 36.1677 37.0727 36.1346 37.1012 36.0201L34.0177 32.8137L31.6974 30.7642L26.8127 26.7314L26.2936 26.1695C25.8459 25.6406 25.622 24.8693 25.622 23.8556L25.7441 23.1284L26.1105 22.2689L26.8737 21.3764L27.6675 20.9136L28.5223 20.7153Z" fill="white" stroke="white" stroke-width="0.245289"/>
<path d="M66.6661 0.60222H67.826L68.2536 0.73444C68.8847 0.998887 69.3833 1.40657 69.7495 1.9575L70.6655 4.07306L71.7031 7.04805L73.169 12.403V12.6675L73.7797 15.312L74.512 19.6753V20.072L74.8173 21.9892V22.452L74.8787 22.5181L74.9396 23.5759L75.0004 23.642L75.0618 25.2948C74.8823 26.2468 74.4855 26.963 73.8712 27.4434L72.7721 28.0384L72.4668 28.1045H71.49C70.6107 27.9106 69.9488 27.4808 69.505 26.8153L69.1388 26.1542L68.9558 25.5592L68.7113 22.9809L68.6504 22.9147L68.5282 21.5264L68.2843 20.2042V19.8075L67.4291 15.1136L66.6354 11.808L65.6585 8.56863L64.2541 4.9325L64.1319 4.3375V3.47806C64.2987 2.44672 64.716 1.68644 65.3839 1.19722C65.7218 0.901921 66.1487 0.703588 66.6661 0.60222Z" fill="white" stroke="white" stroke-width="0.245289"/>
<path d="M113.232 2.07369H113.781L114.575 2.27203C115.149 2.51003 115.607 2.87364 115.949 3.36286L116.498 4.55286L116.559 4.88342V6.00731L116.438 6.53621L116.071 7.32953C114.321 10.5029 112.652 13.7643 111.064 17.114L108.866 22.2706L107.645 25.9068C107.425 26.5282 107.089 27.0241 106.638 27.3943L105.722 27.9232L105.233 28.0554H104.256C103.377 27.8615 102.715 27.4317 102.272 26.7662L101.783 25.7746L101.661 25.2457V24.1879L102.15 22.5351L103.066 19.9567C103.965 17.6032 104.942 15.3334 105.996 13.1473L110.759 3.82564L111.644 2.73481L112.438 2.27203L113.232 2.07369Z" fill="white" stroke="white" stroke-width="0.245289"/>
<path d="M151.837 18.0176H152.814L153.486 18.2159C154.027 18.4716 154.465 18.8351 154.799 19.3068C155.055 19.6506 155.238 20.0692 155.348 20.5629L155.409 21.7529C155.255 22.6873 154.898 23.4034 154.34 23.9015C151.63 25.6821 149.044 27.5993 146.586 29.6532L143.777 32.1654L141.274 34.7437H141.182V34.8429L138.832 37.4543L137.61 38.1154L136.45 38.1815C135.535 38.0052 134.852 37.5755 134.405 36.8923L133.916 35.9007L133.794 35.3057V34.3801C133.892 33.7366 134.095 33.2078 134.405 32.7935L138.16 28.6615C140.289 26.5151 142.548 24.5097 144.937 22.6454L150.677 18.4804C151.003 18.26 151.39 18.1057 151.837 18.0176Z" fill="white" stroke="white" stroke-width="0.245289"/>
<path d="M171.625 49.1691L171.686 49.2352L172.358 49.3013L173.09 49.6319L173.976 50.4583L174.526 51.5821L174.648 52.1771V52.9043C174.473 53.9489 174.055 54.7312 173.396 55.2513C173.058 55.551 172.631 55.7494 172.114 55.8463L170.709 55.9785L170.16 56.1108H169.672L169.61 56.1769L168.756 56.2429L168.328 56.3752L166.801 56.5735L162.649 57.5652L160.94 58.0941L160.757 58.2263H160.574L158.253 59.0857L156.055 60.0113L153.674 61.2014L152.88 61.4658H151.842C151.113 61.2851 150.533 60.9436 150.102 60.4408C149.577 59.9077 149.292 59.1144 149.247 58.061L149.308 57.9949L149.369 57.2677L149.735 56.3421L150.499 55.4496L151.536 54.8546L155.017 53.268L158.681 51.8796L160.757 51.2185L163.504 50.4913L166.313 49.8963H166.68L168.328 49.5657L169.732 49.4335L169.793 49.3674L170.771 49.3013L170.831 49.2352H171.564L171.625 49.1691Z" fill="white" stroke="white" stroke-width="0.245289"/>
</svg>
