<svg width="40" height="40" viewBox="0 0 40 40" fill="none" xmlns="http://www.w3.org/2000/svg">
<g filter="url(#filter0_d_7_702)">
<path d="M18.753 3.99442C19.4826 3.41264 20.5174 3.41265 21.247 3.99442L21.9391 4.54635C22.4458 4.95044 23.1169 5.08394 23.7397 4.90452L24.5903 4.65946C25.487 4.40114 26.4431 4.79718 26.8944 5.61385L27.3226 6.38862C27.6362 6.95587 28.2051 7.33603 28.8491 7.40859L29.7288 7.50771C30.656 7.61219 31.3878 8.34396 31.4923 9.2712L31.5914 10.1509C31.664 10.7949 32.0441 11.3638 32.6114 11.6774L33.3862 12.1056C34.2028 12.5569 34.5989 13.513 34.3405 14.4097L34.0955 15.2603C33.9161 15.8831 34.0496 16.5542 34.4537 17.0609L35.0056 17.753C35.5874 18.4826 35.5874 19.5174 35.0056 20.247L34.4537 20.9391C34.0496 21.4458 33.9161 22.1169 34.0955 22.7397L34.3405 23.5903C34.5989 24.487 34.2028 25.4431 33.3861 25.8944L32.6114 26.3226C32.0441 26.6362 31.664 27.2051 31.5914 27.8491L31.4923 28.7288C31.3878 29.656 30.656 30.3878 29.7288 30.4923L28.8491 30.5914C28.2051 30.664 27.6362 31.0441 27.3226 31.6114L26.8944 32.3862C26.4431 33.2028 25.487 33.5989 24.5903 33.3405L23.7397 33.0955C23.1169 32.9161 22.4458 33.0496 21.9391 33.4537L21.247 34.0056C20.5174 34.5874 19.4826 34.5874 18.753 34.0056L18.0609 33.4537C17.5542 33.0496 16.8831 32.9161 16.2603 33.0955L15.4097 33.3405C14.513 33.5989 13.5569 33.2028 13.1056 32.3861L12.6774 31.6114C12.3638 31.0441 11.7949 30.664 11.1509 30.5914L10.2712 30.4923C9.34396 30.3878 8.61219 29.656 8.50771 28.7288L8.40859 27.8491C8.33603 27.2051 7.95586 26.6362 7.38861 26.3226L6.61385 25.8944C5.79718 25.4431 5.40115 24.487 5.65946 23.5903L5.90452 22.7397C6.08394 22.1169 5.95044 21.4458 5.54635 20.9391L4.99442 20.247C4.41264 19.5174 4.41265 18.4826 4.99442 17.753L5.54635 17.0609C5.95044 16.5542 6.08394 15.8831 5.90452 15.2603L5.65946 14.4097C5.40114 13.513 5.79718 12.5569 6.61385 12.1056L7.38861 11.6774C7.95587 11.3638 8.33603 10.7949 8.40859 10.1509L8.50771 9.2712C8.61219 8.34396 9.34396 7.61219 10.2712 7.50771L11.1509 7.40859C11.7949 7.33603 12.3638 6.95586 12.6774 6.38861L13.1056 5.61385C13.5569 4.79718 14.513 4.40115 15.4097 4.65946L16.2603 4.90452C16.8831 5.08394 17.5542 4.95044 18.0609 4.54635L18.753 3.99442Z" fill="url(#paint0_linear_7_702)"/>
<g filter="url(#filter1_d_7_702)">
<path d="M20 32C27.1797 32 33 26.1797 33 19C33 11.8203 27.1797 6 20 6C12.8203 6 7 11.8203 7 19C7 26.1797 12.8203 32 20 32Z" fill="url(#paint1_linear_7_702)"/>
<path opacity="0.18" d="M20 31C26.6274 31 32 25.6274 32 19C32 12.3726 26.6274 7 20 7C13.3726 7 8 12.3726 8 19C8 25.6274 13.3726 31 20 31Z" fill="url(#paint2_radial_7_702)" fill-opacity="0.5"/>
</g>
<path d="M31.069 18.9957C31.069 19.4479 31.0431 19.9001 30.9913 20.3394C30.9396 20.8304 30.8361 21.3214 30.7197 21.7866C30.6679 21.9933 30.6162 22.1871 30.5515 22.3938C30.4351 22.7556 30.3057 23.1174 30.1505 23.4663C29.8142 24.2286 29.4002 24.9392 28.9086 25.5982C28.4947 26.1538 28.029 26.6706 27.5116 27.1487C25.5582 28.9576 22.9451 30.0559 20.0733 30.0688C17.2015 30.0817 14.5755 28.9964 12.6093 27.2004C12.1047 26.7352 11.6391 26.2313 11.2251 25.6886C10.4489 24.6679 9.85388 23.505 9.47873 22.2646C9.29763 21.6832 9.16827 21.0759 9.09065 20.4557C9.03891 20.0035 9.0001 19.5513 9.0001 19.099C8.97423 12.9745 13.8899 8.02587 19.9957 8.00003C26.0886 7.9871 31.0431 12.897 31.069 18.9957Z" fill="#FCFCFC"/>
<path d="M20 30C26.0751 30 31 25.0751 31 19C31 12.9249 26.0751 7.99998 20 7.99998C13.9249 7.99998 9 12.9249 9 19C9 25.0751 13.9249 30 20 30Z" fill="white"/>
<path d="M20 30C26.0751 30 31 25.0751 31 19C31 12.9249 26.0751 7.99998 20 7.99998C13.9249 7.99998 9 12.9249 9 19C9 25.0751 13.9249 30 20 30Z" fill="url(#paint3_linear_7_702)"/>
<path d="M13.1374 18.812C13.1374 17.996 13.3254 17.264 13.7014 16.616C14.0854 15.968 14.6014 15.464 15.2494 15.104C15.9054 14.736 16.6214 14.552 17.3974 14.552C18.2854 14.552 19.0734 14.772 19.7614 15.212C20.4574 15.644 20.9614 16.26 21.2734 17.06H19.6294C19.4134 16.62 19.1134 16.292 18.7294 16.076C18.3454 15.86 17.9014 15.752 17.3974 15.752C16.8454 15.752 16.3534 15.876 15.9214 16.124C15.4894 16.372 15.1494 16.728 14.9014 17.192C14.6614 17.656 14.5414 18.196 14.5414 18.812C14.5414 19.428 14.6614 19.968 14.9014 20.432C15.1494 20.896 15.4894 21.256 15.9214 21.512C16.3534 21.76 16.8454 21.884 17.3974 21.884C17.9014 21.884 18.3454 21.776 18.7294 21.56C19.1134 21.344 19.4134 21.016 19.6294 20.576H21.2734C20.9614 21.376 20.4574 21.992 19.7614 22.424C19.0734 22.856 18.2854 23.072 17.3974 23.072C16.6134 23.072 15.8974 22.892 15.2494 22.532C14.6014 22.164 14.0854 21.656 13.7014 21.008C13.3254 20.36 13.1374 19.628 13.1374 18.812ZM24.2426 21.896H27.0626V23H22.8746V14.66H24.2426V21.896Z" fill="url(#paint4_linear_7_702)"/>
</g>
<defs>
<filter id="filter0_d_7_702" x="0" y="0" width="40" height="40" filterUnits="userSpaceOnUse" color-interpolation-filters="sRGB">
<feFlood flood-opacity="0" result="BackgroundImageFix"/>
<feColorMatrix in="SourceAlpha" type="matrix" values="0 0 0 0 0 0 0 0 0 0 0 0 0 0 0 0 0 0 127 0" result="hardAlpha"/>
<feOffset dy="1"/>
<feGaussianBlur stdDeviation="2"/>
<feColorMatrix type="matrix" values="0 0 0 0 0.431373 0 0 0 0 0.454902 0 0 0 0 0.52549 0 0 0 0.12 0"/>
<feBlend mode="normal" in2="BackgroundImageFix" result="effect1_dropShadow_7_702"/>
<feBlend mode="normal" in="SourceGraphic" in2="effect1_dropShadow_7_702" result="shape"/>
</filter>
<filter id="filter1_d_7_702" x="3" y="3" width="34" height="34" filterUnits="userSpaceOnUse" color-interpolation-filters="sRGB">
<feFlood flood-opacity="0" result="BackgroundImageFix"/>
<feColorMatrix in="SourceAlpha" type="matrix" values="0 0 0 0 0 0 0 0 0 0 0 0 0 0 0 0 0 0 127 0" result="hardAlpha"/>
<feOffset dy="1"/>
<feGaussianBlur stdDeviation="2"/>
<feColorMatrix type="matrix" values="0 0 0 0 0.00392157 0 0 0 0 0.0196078 0 0 0 0 0.2 0 0 0 0.08 0"/>
<feBlend mode="normal" in2="BackgroundImageFix" result="effect1_dropShadow_7_702"/>
<feBlend mode="normal" in="SourceGraphic" in2="effect1_dropShadow_7_702" result="shape"/>
</filter>
<linearGradient id="paint0_linear_7_702" x1="3.98265" y1="18.9947" x2="36.0069" y2="18.9947" gradientUnits="userSpaceOnUse">
<stop stop-color="#FFFCA8"/>
<stop offset="0.3123" stop-color="#FDB836"/>
<stop offset="0.7592" stop-color="#FDC966"/>
<stop offset="1" stop-color="#F1DC83"/>
</linearGradient>
<linearGradient id="paint1_linear_7_702" x1="6.9859" y1="18.9957" x2="33.0056" y2="18.9957" gradientUnits="userSpaceOnUse">
<stop stop-color="#FFFCA8"/>
<stop offset="0.3123" stop-color="#FDB836"/>
<stop offset="0.7592" stop-color="#FDC966"/>
<stop offset="1" stop-color="#F1DC83"/>
</linearGradient>
<radialGradient id="paint2_radial_7_702" cx="0" cy="0" r="1" gradientUnits="userSpaceOnUse" gradientTransform="translate(19.994 18.994) scale(11.9942 11.9941)">
<stop stop-color="white" stop-opacity="0"/>
<stop offset="1" stop-color="#571600"/>
</radialGradient>
<linearGradient id="paint3_linear_7_702" x1="20" y1="7.99998" x2="20" y2="30" gradientUnits="userSpaceOnUse">
<stop offset="0.5" stop-opacity="0"/>
<stop offset="0.776042" stop-opacity="0.2"/>
</linearGradient>
<linearGradient id="paint4_linear_7_702" x1="12.4919" y1="18.9974" x2="27.5032" y2="18.9974" gradientUnits="userSpaceOnUse">
<stop stop-color="#AAA87D"/>
<stop offset="0.3123" stop-color="#B57B0E"/>
<stop offset="0.7592" stop-color="#A08042"/>
<stop offset="1" stop-color="#BCAC66"/>
</linearGradient>
</defs>
</svg>
